<svg width="18" height="18" viewBox="0 0 18 18" fill="none" xmlns="http://www.w3.org/2000/svg">
<path d="M8.77485 16.2H4.27485C3.28073 16.2 2.47485 15.3941 2.47485 14.4L2.47492 3.60004C2.47493 2.60593 3.28082 1.80005 4.27492 1.80005H12.3751C13.3692 1.80005 14.1751 2.60594 14.1751 3.60005V7.20005M5.62513 5.40005H11.0251M5.62513 8.10005H11.0251M11.0251 11.6655V13.8738C11.0251 14.965 12.1887 15.9659 13.2799 15.9659C14.3711 15.9659 15.5251 14.965 15.5251 13.8738V11.0844C15.5251 10.5067 15.193 9.92042 14.4543 9.92042C13.6639 9.92042 13.2799 10.5067 13.2799 11.0844V13.7576M5.62513 10.8H8.32513" stroke="#6B59F2" stroke-width="1.8" stroke-linecap="round" stroke-linejoin="round"/>
</svg>
