<svg width="36" height="36" viewBox="0 0 36 36" fill="none" xmlns="http://www.w3.org/2000/svg">
<path fill-rule="evenodd" clip-rule="evenodd" d="M18 5.55C15.0835 5.55 12.7551 7.99478 12.75 10.9485L12.75 17.1105C12.75 20.0512 15.0869 22.4748 18 22.4748H18.5143C21.4274 22.4748 23.7643 20.0512 23.7643 17.1105V10.9582C23.7643 8.00006 21.434 5.55 18.5143 5.55H18ZM15.5357 17.4594V10.608C15.7011 9.32976 16.7714 8.36836 18 8.36836H18.5143C19.7429 8.36836 20.8132 9.32976 20.9786 10.608V17.4594C20.8121 18.7061 19.7492 19.6564 18.5143 19.6564H18C16.7651 19.6564 15.7022 18.7061 15.5357 17.4594Z" fill="#B5FF00"/>
<path d="M9.94278 18.4377C9.15593 18.4377 8.54993 19.0865 8.54993 19.8469C8.54993 22.1469 9.83961 24.1698 11.5538 25.6299C12.9399 26.8105 14.6633 27.0877 16.3751 27.363C16.5527 27.3915 16.7301 27.4201 16.9071 27.4496V29.7316H12.6856C11.8988 29.7316 11.2928 30.3804 11.2928 31.1408C11.2928 31.9012 11.8988 32.55 12.6856 32.55H23.9142C24.7011 32.55 25.3071 31.9012 25.3071 31.1408C25.3071 30.3804 24.7011 29.7316 23.9142 29.7316H19.6928V27.4496C19.8697 27.4201 20.0472 27.3915 20.2248 27.363C21.9366 27.0877 23.66 26.8105 25.0461 25.6299C26.7602 24.1698 28.0499 22.1469 28.0499 19.8469C28.0499 19.0865 27.4439 18.4377 26.6571 18.4377C25.8702 18.4377 25.2642 19.0865 25.2642 19.8469C25.2642 21.2879 24.378 22.6845 22.9848 23.756C21.68 24.7595 20.0371 24.7548 18.5783 24.7505C18.4847 24.7503 18.3919 24.75 18.2999 24.75C18.208 24.75 18.1151 24.7503 18.0215 24.7505C16.5627 24.7548 14.9199 24.7595 13.6151 23.756C12.2219 22.6845 11.3356 21.2879 11.3356 19.8469C11.3356 19.0865 10.7296 18.4377 9.94278 18.4377Z" fill="#B5FF00"/>
<path d="M29.2658 3.57744C29.4525 2.80752 30.5475 2.80752 30.7342 3.57744L31.2479 5.69593C31.3146 5.97082 31.5292 6.18544 31.8041 6.2521L33.9226 6.7658C34.6925 6.9525 34.6925 8.0475 33.9226 8.2342L31.8041 8.7479C31.5292 8.81456 31.3146 9.02918 31.2479 9.30407L30.7342 11.4226C30.5475 12.1925 29.4525 12.1925 29.2658 11.4226L28.7521 9.30407C28.6854 9.02918 28.4708 8.81456 28.1959 8.7479L26.0774 8.2342C26.0293 8.22253 25.9842 8.20731 25.9421 8.18899C25.3105 7.91418 25.3556 6.94083 26.0774 6.7658L28.1959 6.2521C28.4708 6.18544 28.6854 5.97082 28.7521 5.69593L29.2658 3.57744Z" fill="#B5FF00"/>
<path d="M4.63817 25.9812C4.79375 25.3396 5.70625 25.3396 5.86183 25.9812L6.28992 27.7466C6.34546 27.9757 6.52432 28.1545 6.75339 28.2101L8.5188 28.6382C9.1604 28.7937 9.1604 29.7063 8.5188 29.8618L6.75339 30.2899C6.72475 30.2969 6.69691 30.3057 6.66998 30.3164C6.48153 30.391 6.33852 30.5529 6.28992 30.7534L5.86183 32.5188C5.85211 32.5589 5.83943 32.5965 5.82416 32.6316C5.59515 33.1579 4.78402 33.1203 4.63817 32.5188L4.21008 30.7534C4.20661 30.7391 4.20266 30.725 4.19824 30.711C4.13198 30.5024 3.96137 30.342 3.74661 30.2899L1.9812 29.8618C1.9411 29.8521 1.90351 29.8394 1.86842 29.8242C1.34211 29.5951 1.3797 28.784 1.9812 28.6382L3.74661 28.2101C3.97568 28.1545 4.15454 27.9757 4.21008 27.7466L4.63817 25.9812Z" fill="#B5FF00"/>
<path d="M10.5 4.5C10.5 5.32843 9.82843 6 9 6C8.17157 6 7.5 5.32843 7.5 4.5C7.5 3.67157 8.17157 3 9 3C9.82843 3 10.5 3.67157 10.5 4.5Z" fill="#B5FF00"/>
<path d="M33 31.5C33 32.3284 32.3284 33 31.5 33C30.6716 33 30 32.3284 30 31.5C30 30.6716 30.6716 30 31.5 30C32.3284 30 33 30.6716 33 31.5Z" fill="#B5FF00"/>
<path d="M33 25.5C33 26.3284 32.3284 27 31.5 27C30.6716 27 30 26.3284 30 25.5C30 24.6716 30.6716 24 31.5 24C32.3284 24 33 24.6716 33 25.5Z" fill="#B5FF00"/>
<path d="M6 9C6 9.82843 5.32843 10.5 4.5 10.5C3.67157 10.5 3 9.82843 3 9C3 8.17157 3.67157 7.5 4.5 7.5C5.32843 7.5 6 8.17157 6 9Z" fill="#B5FF00"/>
</svg>
