<svg width="34" height="29" viewBox="0 0 34 29" fill="none" xmlns="http://www.w3.org/2000/svg">
<path d="M32.6279 24.6912C32.6279 24.6912 30.5378 26.4041 30.0256 26.9062C29.1912 27.6492 28.2081 28 26.9193 28C26.7954 28 26.6632 28 26.5393 27.9931C24.0857 27.8624 21.8055 27.0645 20.0954 26.3834C15.4195 24.4986 11.3136 21.8227 7.90163 18.4313C5.0845 15.6041 3.2009 12.9901 1.95344 10.1834C1.18513 8.47057 0.904241 7.13605 1.02816 5.8772C1.11078 5.07236 1.48254 4.4051 2.16823 3.83414L4.98536 1.48841C5.39017 1.17197 5.81976 1 6.24109 1C6.76156 1 7.18289 1.2614 7.44725 1.48153C7.45551 1.48841 7.46377 1.49529 7.47203 1.50217C7.97598 1.89427 8.45514 2.30013 8.95908 2.7335C9.21518 2.95363 9.47955 3.17376 9.74391 3.40076L11.9993 5.27873C12.875 6.0079 12.875 6.68204 11.9993 7.41121C11.7597 7.6107 11.5284 7.81019 11.2888 8.0028C10.5948 8.59439 11.14 8.14047 10.4212 8.67703C10.4047 8.69079 10.3882 8.69767 10.3799 8.71143C9.66945 9.30302 9.80163 9.88085 9.95034 10.273C9.9586 10.2936 9.96686 10.3142 9.97512 10.3349C10.5617 11.518 11.3878 12.6324 12.6435 13.9601L12.6518 13.967C14.9319 16.3058 17.336 18.1287 19.9879 19.5252C20.3266 19.704 20.6736 19.8485 21.0041 19.9861C21.3015 20.1099 21.5824 20.2268 21.8219 20.3507C21.855 20.3644 21.888 20.3851 21.9211 20.3988C22.202 20.5158 22.4663 20.5708 22.7389 20.5708C23.4246 20.5708 23.8542 20.2131 23.9947 20.0961L25.614 18.7478C25.8949 18.5139 26.341 18.2318 26.8615 18.2318C27.3737 18.2318 27.795 18.5001 28.0511 18.734C28.0594 18.7409 28.0594 18.7409 28.0676 18.7478L32.6197 22.5381C33.4706 23.2397 32.6279 24.6912 32.6279 24.6912Z" stroke="black" stroke-width="2" stroke-linecap="round" stroke-linejoin="round"/>
</svg>
