<svg width="18" height="15" viewBox="0 0 18 15" fill="none" xmlns="http://www.w3.org/2000/svg">
<path d="M3.83944 0.292923C3.76297 0.206718 3.67014 0.136549 3.56635 0.0864827C3.46255 0.0364162 3.34986 0.00744811 3.23479 0.00125751C3.11971 -0.00493309 3.00456 0.0117769 2.89599 0.0504189C2.78743 0.0890609 2.68761 0.148866 2.60233 0.226369C2.51705 0.303872 2.448 0.397531 2.39918 0.501917C2.35036 0.606303 2.32274 0.71934 2.31793 0.834477C2.31312 0.949614 2.33121 1.06456 2.37115 1.17266C2.41109 1.28075 2.47209 1.37984 2.55061 1.46419L3.71172 2.74503C1.21171 4.40977 0.126805 6.79874 0.0745548 6.91123C0.0253915 7.02269 0 7.14318 0 7.265C0 7.38682 0.0253915 7.50731 0.0745548 7.61877C0.101405 7.67828 0.737111 9.08902 2.14205 10.4932C4.02014 12.3691 6.38807 13.3604 9.00055 13.3604C10.2703 13.3675 11.5286 13.1208 12.7016 12.6348L14.1595 14.2385C14.3156 14.4063 14.5316 14.5057 14.7605 14.5152C14.9895 14.5248 15.213 14.4437 15.3826 14.2896C15.5521 14.1355 15.6541 13.9208 15.6665 13.6919C15.6788 13.4631 15.6004 13.2387 15.4483 13.0673L3.83944 0.292923ZM9.00055 11.6188C6.85323 11.6188 4.97515 10.8401 3.41926 9.30528C2.80726 8.69929 2.28064 8.01277 1.85395 7.26464C2.23639 6.58902 3.21752 5.09482 4.90185 4.05055L11.4396 11.2429C10.6512 11.4946 9.8282 11.6215 9.00055 11.6188ZM17.9266 7.61877C17.9004 7.67756 17.2734 9.07016 15.8946 10.4606C15.8157 10.5482 15.7197 10.6189 15.6126 10.6684C15.5055 10.7178 15.3895 10.745 15.2716 10.7482C15.1537 10.7515 15.0363 10.7307 14.9267 10.6872C14.817 10.6438 14.7173 10.5785 14.6337 10.4953C14.55 10.4121 14.4841 10.3128 14.44 10.2034C14.3959 10.094 14.3744 9.97681 14.377 9.85888C14.3795 9.74095 14.406 9.62476 14.4548 9.51737C14.5036 9.40998 14.5738 9.31363 14.6609 9.23416C15.2401 8.64529 15.7398 7.98316 16.1472 7.26464C15.7207 6.51634 15.1941 5.82978 14.5818 5.22399C13.0252 3.68916 11.1479 2.91049 9.00055 2.91049C8.75745 2.91049 8.51434 2.92065 8.27486 2.94097C8.15946 2.95333 8.04275 2.9425 7.93159 2.90911C7.82043 2.87573 7.71707 2.82045 7.62758 2.74655C7.53809 2.67264 7.46427 2.58159 7.41047 2.47875C7.35667 2.3759 7.32398 2.26334 7.3143 2.14768C7.30463 2.03202 7.31817 1.9156 7.35414 1.80524C7.3901 1.69489 7.44776 1.59285 7.52373 1.5051C7.5997 1.41735 7.69245 1.34568 7.79651 1.29428C7.90058 1.24289 8.01387 1.21282 8.12973 1.20584C8.41492 1.18117 8.71028 1.16883 9.00055 1.16883C11.613 1.16883 13.981 2.16085 15.8576 4.03676C17.2618 5.44098 17.8975 6.85244 17.9244 6.91123C17.9739 7.02254 17.9996 7.14295 18 7.26477C18.0004 7.3866 17.9754 7.50716 17.9266 7.61877Z" fill="white"/>
</svg>
