<svg width="36" height="36" viewBox="0 0 36 36" fill="none" xmlns="http://www.w3.org/2000/svg">
<path d="M5.52097 29.5215L7.93392 31.9345C8.6959 32.6965 9.77538 33.141 10.7914 33.141C11.8073 33.141 12.8868 32.6965 13.6488 31.9345L28.6131 16.9702L29.375 9.73128C29.502 8.84229 28.8036 8.0803 27.9146 8.0803C27.8511 8.0803 27.7876 8.0803 27.7241 8.0803L20.4852 8.84229L5.52097 23.8066C3.9335 25.394 3.9335 27.934 5.52097 29.5215ZM21.8822 11.7633L26.1366 11.3188L25.6921 15.5732L18.4747 22.8541L16.5062 24.8225L12.6328 20.9491L14.6013 18.9806L21.8822 11.7633ZM7.67992 25.9655L10.4739 23.1081L14.3473 26.9815L11.4898 29.7755C11.2359 30.0295 10.9184 30.093 10.7914 30.093C10.6644 30.093 10.3469 30.0295 10.0929 29.7755L7.67992 27.3625C7.29893 26.9815 7.29893 26.3465 7.67992 25.9655Z" fill="#B5FF00"/>
<path d="M6.52107 2.26992C6.77 1.24336 8.23 1.24336 8.47893 2.26992L9.16387 5.09458C9.25274 5.46109 9.53891 5.74726 9.90542 5.83613L12.7301 6.52107C13.7566 6.77 13.7566 8.23 12.7301 8.47893L9.90542 9.16387C9.53891 9.25274 9.25274 9.53891 9.16387 9.90542L8.47893 12.7301C8.23 13.7566 6.77 13.7566 6.52107 12.7301L5.83613 9.90542C5.74726 9.53891 5.46109 9.25274 5.09458 9.16387L2.26992 8.47893C1.24336 8.23 1.24336 6.77 2.26992 6.52107L5.09458 5.83613C5.46109 5.74726 5.74726 5.46109 5.83613 5.09458L6.52107 2.26992Z" fill="#B5FF00"/>
<path fill-rule="evenodd" clip-rule="evenodd" d="M7.5 3.36219L7.01085 5.37943C6.81532 6.18576 6.18576 6.81532 5.37943 7.01085L3.36219 7.5L5.37943 7.98915C6.18576 8.18468 6.81532 8.81424 7.01085 9.62057L7.5 11.6378L7.98915 9.62057C8.18468 8.81424 8.81424 8.18468 9.62057 7.98915L11.6378 7.5L9.62057 7.01085C8.81424 6.81532 8.18468 6.18576 7.98915 5.37943L7.5 3.36219ZM8.47893 2.26992C8.23 1.24336 6.77 1.24336 6.52107 2.26992L5.83613 5.09458C5.74726 5.46109 5.46109 5.74726 5.09458 5.83613L2.26992 6.52107C1.24336 6.77 1.24336 8.23 2.26992 8.47893L5.09458 9.16387C5.46109 9.25274 5.74726 9.53891 5.83613 9.90542L6.52107 12.7301C6.77 13.7566 8.23 13.7566 8.47893 12.7301L9.16387 9.90542C9.25274 9.53891 9.53891 9.25274 9.90542 9.16387L12.7301 8.47893C13.7566 8.23 13.7566 6.77 12.7301 6.52107L9.90542 5.83613C9.53891 5.74726 9.25274 5.46109 9.16387 5.09458L8.47893 2.26992Z" fill="#B5FF00"/>
<path d="M29.2658 26.0774C29.4525 25.3075 30.5475 25.3075 30.7342 26.0774L31.2479 28.1959C31.3146 28.4708 31.5292 28.6854 31.8041 28.7521L33.9226 29.2658C34.6925 29.4525 34.6925 30.5475 33.9226 30.7342L31.8041 31.2479C31.5292 31.3146 31.3146 31.5292 31.2479 31.8041L30.7342 33.9226C30.5475 34.6925 29.4525 34.6925 29.2658 33.9226L28.7521 31.8041C28.6854 31.5292 28.4708 31.3146 28.1959 31.2479L26.0774 30.7342C25.3075 30.5475 25.3075 29.4525 26.0774 29.2658L28.1959 28.7521C28.4708 28.6854 28.6854 28.4708 28.7521 28.1959L29.2658 26.0774Z" fill="#B5FF00"/>
<path fill-rule="evenodd" clip-rule="evenodd" d="M30 26.8966L29.6331 28.4096C29.4865 29.0143 29.0143 29.4865 28.4096 29.6331L26.8966 30L28.4096 30.3669C29.0143 30.5135 29.4865 30.9857 29.6331 31.5904L30 33.1034L30.3669 31.5904C30.5135 30.9857 30.9857 30.5135 31.5904 30.3669L33.1034 30L31.5904 29.6331C30.9857 29.4865 30.5135 29.0143 30.3669 28.4096L30 26.8966ZM30.7342 26.0774C30.5475 25.3075 29.4525 25.3075 29.2658 26.0774L28.7521 28.1959C28.6854 28.4708 28.4708 28.6854 28.1959 28.7521L26.0774 29.2658C25.3075 29.4525 25.3075 30.5475 26.0774 30.7342L28.1959 31.2479C28.4708 31.3146 28.6854 31.5292 28.7521 31.8041L29.2658 33.9226C29.4525 34.6925 30.5475 34.6925 30.7342 33.9226L31.2479 31.8041C31.3146 31.5292 31.5292 31.3146 31.8041 31.2479L33.9226 30.7342C34.6925 30.5475 34.6925 29.4525 33.9226 29.2658L31.8041 28.7521C31.5292 28.6854 31.3146 28.4708 31.2479 28.1959L30.7342 26.0774Z" fill="#B5FF00"/>
<path d="M34.5 3C34.5 3.82843 33.8284 4.5 33 4.5C32.1716 4.5 31.5 3.82843 31.5 3C31.5 2.17157 32.1716 1.5 33 1.5C33.8284 1.5 34.5 2.17157 34.5 3Z" fill="#B5FF00"/>
<path d="M19.5 3C19.5 3.82843 18.8284 4.5 18 4.5C17.1716 4.5 16.5 3.82843 16.5 3C16.5 2.17157 17.1716 1.5 18 1.5C18.8284 1.5 19.5 2.17157 19.5 3Z" fill="#B5FF00"/>
<path d="M6 18C6 18.8284 5.32843 19.5 4.5 19.5C3.67157 19.5 3 18.8284 3 18C3 17.1716 3.67157 16.5 4.5 16.5C5.32843 16.5 6 17.1716 6 18Z" fill="#B5FF00"/>
</svg>
