<svg width="36" height="36" viewBox="0 0 36 36" fill="none" xmlns="http://www.w3.org/2000/svg">
<path fill-rule="evenodd" clip-rule="evenodd" d="M21.8632 7.24145C19.6079 4.98617 15.9514 4.98618 13.6961 7.24146L8.21922 12.7184L8.22675 12.7259C7.03722 14.014 6.28781 15.3537 6.12699 16.7991C5.94742 18.4131 6.52885 19.9041 7.53026 21.295C7.62179 21.4221 7.65642 21.5907 7.62279 21.7534C7.5901 21.9116 7.50533 22.0151 7.4036 22.0688C5.95311 22.8345 4.23212 23.9603 3.33084 25.4642C2.85624 26.2561 2.5835 27.1965 2.74823 28.2341C2.91061 29.257 3.47278 30.2146 4.36342 31.1052C5.26814 32.0099 6.2408 32.5749 7.27452 32.7591C8.31636 32.9448 9.28028 32.7186 10.1137 32.2896C11.7102 31.4678 12.9597 29.8357 13.8212 28.453C13.8782 28.3615 13.9817 28.2828 14.1461 28.254C14.317 28.224 14.5057 28.2596 14.6554 28.3569C15.9208 29.179 17.3242 29.608 18.8475 29.3569C20.1979 29.1344 21.4867 28.4025 22.7428 27.2419L22.7503 27.2494L28.2272 21.7725C30.4825 19.5172 30.4825 15.8607 28.2272 13.6054L21.8632 7.24145ZM20.9379 25.4371L10.0316 14.5308C9.11689 15.5409 8.73999 16.3743 8.66136 17.0811C8.57494 17.8578 8.82228 18.7253 9.5997 19.805C10.6365 21.2451 10.2856 23.4309 8.59404 24.3239C7.20483 25.0572 6.03552 25.9117 5.51811 26.775C5.28337 27.1667 5.21468 27.5067 5.26669 27.8343C5.32105 28.1767 5.53381 28.6694 6.16655 29.3021C6.80374 29.9393 7.32688 30.1783 7.72187 30.2487C8.10875 30.3176 8.50647 30.2489 8.94665 30.0224C9.8974 29.533 10.843 28.4108 11.6569 27.1045C12.6321 25.5393 14.6813 25.3327 16.0447 26.2186C16.9163 26.7848 17.6837 26.9644 18.4329 26.8409C19.123 26.7272 19.9514 26.3312 20.9379 25.4371ZM15.4993 9.04458C16.7587 7.78514 18.8007 7.78513 20.0601 9.04458L26.4241 15.4085C27.6835 16.668 27.6835 18.7099 26.4241 19.9694L22.7503 23.6432L11.8255 12.7184L15.4993 9.04458Z" fill="#B5FF00"/>
<path d="M29.2658 2.07744C29.4525 1.30752 30.5475 1.30752 30.7342 2.07744L31.2479 4.19593C31.3146 4.47082 31.5292 4.68544 31.8041 4.7521L33.9226 5.2658C34.6925 5.4525 34.6925 6.5475 33.9226 6.7342L31.8041 7.2479C31.5292 7.31456 31.3146 7.52918 31.2479 7.80407L30.7342 9.92256C30.5475 10.6925 29.4525 10.6925 29.2658 9.92256L28.7521 7.80407C28.6854 7.52918 28.4708 7.31456 28.1959 7.2479L26.0774 6.7342C25.3075 6.5475 25.3075 5.4525 26.0774 5.2658L28.1959 4.7521C28.4708 4.68544 28.6854 4.47082 28.7521 4.19593L29.2658 2.07744Z" fill="#B5FF00"/>
<path fill-rule="evenodd" clip-rule="evenodd" d="M30 2.89664L29.6331 4.40957C29.4865 5.01432 29.0143 5.48649 28.4096 5.63314L26.8966 6L28.4096 6.36686C29.0143 6.51351 29.4865 6.98568 29.6331 7.59043L30 9.10336L30.3669 7.59043C30.5135 6.98568 30.9857 6.51351 31.5904 6.36686L33.1034 6L31.5904 5.63314C30.9857 5.48649 30.5135 5.01432 30.3669 4.40957L30 2.89664ZM30.7342 2.07744C30.5475 1.30752 29.4525 1.30752 29.2658 2.07744L28.7521 4.19593C28.6854 4.47082 28.4708 4.68544 28.1959 4.7521L26.0774 5.2658C25.3075 5.4525 25.3075 6.5475 26.0774 6.7342L28.1959 7.2479C28.4708 7.31456 28.6854 7.52918 28.7521 7.80407L29.2658 9.92256C29.4525 10.6925 30.5475 10.6925 30.7342 9.92256L31.2479 7.80407C31.3146 7.52918 31.5292 7.31456 31.8041 7.2479L33.9226 6.7342C34.6925 6.5475 34.6925 5.4525 33.9226 5.2658L31.8041 4.7521C31.5292 4.68544 31.3146 4.47082 31.2479 4.19593L30.7342 2.07744Z" fill="#B5FF00"/>
<path d="M4.5 7.5C4.5 8.32843 3.82843 9 3 9C2.17157 9 1.5 8.32843 1.5 7.5C1.5 6.67157 2.17157 6 3 6C3.82843 6 4.5 6.67157 4.5 7.5Z" fill="#B5FF00"/>
<path d="M10.5 3C10.5 3.82843 9.82843 4.5 9 4.5C8.17157 4.5 7.5 3.82843 7.5 3C7.5 2.17157 8.17157 1.5 9 1.5C9.82843 1.5 10.5 2.17157 10.5 3Z" fill="#B5FF00"/>
<path d="M30.1382 27.4812C30.2937 26.8396 31.2063 26.8396 31.3618 27.4812L31.7899 29.2466C31.8455 29.4757 32.0243 29.6545 32.2534 29.7101L34.0188 30.1382C34.6604 30.2937 34.6604 31.2063 34.0188 31.3618L32.2534 31.7899C32.0243 31.8455 31.8455 32.0243 31.7899 32.2534L31.3618 34.0188C31.2063 34.6604 30.2937 34.6604 30.1382 34.0188L29.7101 32.2534C29.6545 32.0243 29.4757 31.8455 29.2466 31.7899L27.4812 31.3618C26.8396 31.2063 26.8396 30.2937 27.4812 30.1382L29.2466 29.7101C29.4757 29.6545 29.6545 29.4757 29.7101 29.2466L30.1382 27.4812Z" fill="#B5FF00"/>
<path fill-rule="evenodd" clip-rule="evenodd" d="M30.75 28.1639L30.4443 29.4246C30.3221 29.9286 29.9286 30.3221 29.4246 30.4443L28.1639 30.75L29.4246 31.0557C29.9286 31.1779 30.3221 31.5714 30.4443 32.0754L30.75 33.3361L31.0557 32.0754C31.1779 31.5714 31.5714 31.1779 32.0754 31.0557L33.3361 30.75L32.0754 30.4443C31.5714 30.3221 31.1779 29.9286 31.0557 29.4246L30.75 28.1639ZM31.3618 27.4812C31.2063 26.8396 30.2937 26.8396 30.1382 27.4812L29.7101 29.2466C29.6545 29.4757 29.4757 29.6545 29.2466 29.7101L27.4812 30.1382C26.8396 30.2937 26.8396 31.2063 27.4812 31.3618L29.2466 31.7899C29.4757 31.8455 29.6545 32.0243 29.7101 32.2534L30.1382 34.0188C30.2937 34.6604 31.2063 34.6604 31.3618 34.0188L31.7899 32.2534C31.8455 32.0243 32.0243 31.8455 32.2534 31.7899L34.0188 31.3618C34.6604 31.2063 34.6604 30.2937 34.0188 30.1382L32.2534 29.7101C32.0243 29.6545 31.8455 29.4757 31.7899 29.2466L31.3618 27.4812Z" fill="#B5FF00"/>
</svg>
