<svg width="30" height="30" viewBox="0 0 30 30" fill="none" xmlns="http://www.w3.org/2000/svg">
<path d="M13.6137 3.96515C14.0899 2.67828 15.9101 2.67828 16.3862 3.96515L18.7564 10.3703C18.9061 10.7749 19.2251 11.0939 19.6297 11.2436L26.0348 13.6137C27.3217 14.0899 27.3217 15.9101 26.0348 16.3862L19.6297 18.7564C19.2251 18.9061 18.9061 19.2251 18.7564 19.6297L16.3863 26.0348C15.9101 27.3217 14.0899 27.3217 13.6137 26.0348L11.2436 19.6297C11.0939 19.2251 10.7749 18.9061 10.3703 18.7564L3.96515 16.3863C2.67828 15.9101 2.67828 14.0899 3.96515 13.6137L10.3703 11.2436C10.7749 11.0939 11.0939 10.7749 11.2436 10.3703L13.6137 3.96515Z" stroke="white" stroke-width="2" stroke-linejoin="round"/>
</svg>
