<svg width="18" height="18" viewBox="0 0 18 18" fill="none" xmlns="http://www.w3.org/2000/svg">
<g clip-path="url(#clip0_523_2574)">
<path d="M9.00001 2.25C8.40327 2.25 7.83098 2.48705 7.40902 2.90901C6.98706 3.33097 6.75001 3.90326 6.75001 4.5V7.5C6.75001 8.09674 6.98706 8.66903 7.40902 9.09099C7.83098 9.51295 8.40327 9.75 9.00001 9.75C9.59675 9.75 10.169 9.51295 10.591 9.09099C11.013 8.66903 11.25 8.09674 11.25 7.5V4.5C11.25 3.90326 11.013 3.33097 10.591 2.90901C10.169 2.48705 9.59675 2.25 9.00001 2.25ZM9.00001 0.75C9.49247 0.75 9.9801 0.846997 10.4351 1.03545C10.89 1.22391 11.3034 1.50013 11.6517 1.84835C11.9999 2.19657 12.2761 2.60997 12.4646 3.06494C12.653 3.51991 12.75 4.00754 12.75 4.5V7.5C12.75 8.49456 12.3549 9.44839 11.6517 10.1517C10.9484 10.8549 9.99457 11.25 9.00001 11.25C8.00545 11.25 7.05162 10.8549 6.34836 10.1517C5.6451 9.44839 5.25001 8.49456 5.25001 7.5V4.5C5.25001 3.50544 5.6451 2.55161 6.34836 1.84835C7.05162 1.14509 8.00545 0.75 9.00001 0.75ZM2.29126 8.25H3.80251C3.98423 9.49859 4.60941 10.64 5.56368 11.4655C6.51796 12.2909 7.73752 12.7452 8.99926 12.7452C10.261 12.7452 11.4806 12.2909 12.4348 11.4655C13.3891 10.64 14.0143 9.49859 14.196 8.25H15.708C15.5375 9.77153 14.855 11.19 13.7724 12.2727C12.6899 13.3553 11.2715 14.038 9.75001 14.2087V17.25H8.25001V14.2087C6.72836 14.0382 5.30985 13.3556 4.22714 12.2729C3.14444 11.1902 2.46182 9.77165 2.29126 8.25Z" fill="#6B59F2"/>
</g>
<defs>
<clipPath id="clip0_523_2574">
<rect width="18" height="18" fill="white"/>
</clipPath>
</defs>
</svg>
