<svg width="19" height="19" viewBox="0 0 19 19" fill="none" xmlns="http://www.w3.org/2000/svg">
<path d="M18.0464 2.2925L18.7206 1.62776C18.8994 1.44894 18.9999 1.20641 18.9999 0.953519C18.9999 0.70063 18.8994 0.458099 18.7206 0.279279C18.5418 0.10046 18.2993 0 18.0464 0C17.7935 0 17.5509 0.10046 17.3721 0.279279L16.0426 1.61826L13.3552 4.30572L7.36299 10.2884C6.38111 9.64061 5.19372 9.38034 4.03089 9.55804C2.86806 9.73574 1.8126 10.3388 1.069 11.2502C0.325409 12.1617 -0.0533668 13.3168 0.0060692 14.4916C0.0655052 15.6664 0.558921 16.7774 1.39071 17.6092C2.2225 18.441 3.33344 18.9344 4.50826 18.9938C5.68308 19.0532 6.83815 18.6745 7.74964 17.9309C8.66113 17.1873 9.26414 16.1318 9.44184 14.969C9.61955 13.8062 9.35928 12.6188 8.71147 11.6369L14.0199 6.31894L16.0331 8.34166C16.1217 8.42958 16.2267 8.4992 16.3421 8.54654C16.4576 8.59389 16.5812 8.61803 16.706 8.61758C16.8308 8.61714 16.9542 8.59213 17.0693 8.54397C17.1845 8.49582 17.289 8.42546 17.3769 8.33691C17.4648 8.24837 17.5344 8.14338 17.5818 8.02793C17.6291 7.91248 17.6532 7.78884 17.6528 7.66407C17.6524 7.53929 17.6273 7.41582 17.5792 7.30071C17.531 7.1856 17.4607 7.0811 17.3721 6.99318L15.3589 4.97996L16.7074 3.64098L17.3721 4.30572C17.46 4.39427 17.5645 4.46462 17.6797 4.51278C17.7948 4.56094 17.9182 4.58595 18.043 4.58639C18.1678 4.58683 18.2914 4.56269 18.4069 4.51535C18.5223 4.46801 18.6273 4.39839 18.7159 4.31047C18.8044 4.22255 18.8748 4.11805 18.9229 4.00294C18.9711 3.88783 18.9961 3.76437 18.9965 3.63959C18.997 3.51481 18.9728 3.39117 18.9255 3.27572C18.8781 3.16028 18.8085 3.05528 18.7206 2.96674L18.0464 2.2925ZM4.7515 17.0973C4.18804 17.0973 3.63724 16.9302 3.16874 16.6172C2.70024 16.3041 2.33509 15.8592 2.11946 15.3386C1.90384 14.818 1.84742 14.2452 1.95734 13.6926C2.06727 13.14 2.3386 12.6323 2.73703 12.2339C3.13545 11.8355 3.64308 11.5641 4.19571 11.4542C4.74834 11.3443 5.32116 11.4007 5.84173 11.6163C6.3623 11.832 6.80723 12.1971 7.12027 12.6656C7.43332 13.1341 7.6004 13.6849 7.6004 14.2484C7.6004 15.004 7.30025 15.7286 6.76598 16.2629C6.23171 16.7971 5.50708 17.0973 4.7515 17.0973Z" fill="white"/>
</svg>
