<svg width="9" height="10" viewBox="0 0 9 10" fill="none" xmlns="http://www.w3.org/2000/svg">
<path d="M1.92857 4.17857C2.99369 4.17857 3.85714 3.31512 3.85714 2.25V0.642857C3.85714 0.287817 4.14496 0 4.5 0C4.85504 0 5.14286 0.287817 5.14286 0.642857V2.25C5.14286 3.31512 6.00631 4.17857 7.07143 4.17857H8.30357C8.6882 4.17857 9 4.49037 9 4.875C9 5.25963 8.6882 5.57143 8.30357 5.57143H7.07143C6.00631 5.57143 5.14286 6.43488 5.14286 7.5V9.10715C5.14286 9.46218 4.85504 9.75 4.5 9.75C4.14496 9.75 3.85714 9.46218 3.85714 9.10715V7.5C3.85714 6.43488 2.99369 5.57143 1.92857 5.57143H0.696429C0.311802 5.57143 0 5.25963 0 4.875C0 4.49037 0.311802 4.17857 0.696429 4.17857H1.92857Z" fill="white"/>
</svg>
