<svg width="36" height="36" viewBox="0 0 36 36" fill="none" xmlns="http://www.w3.org/2000/svg">
<path d="M9.65924 5.75112C10.0637 4.08296 12.4363 4.08296 12.8408 5.75112L13.9538 10.3412C14.0982 10.9368 14.5632 11.4018 15.1588 11.5462L19.7489 12.6592C21.417 13.0637 21.417 15.4363 19.7489 15.8408L15.1588 16.9538C14.5632 17.0982 14.0982 17.5632 13.9538 18.1588L12.8408 22.7489C12.4363 24.417 10.0637 24.417 9.65924 22.7489L8.54622 18.1588C8.40179 17.5632 7.93678 17.0982 7.34119 16.9538L2.75112 15.8408C1.08296 15.4363 1.08296 13.0637 2.75112 12.6592L7.34119 11.5462C7.93678 11.4018 8.40179 10.9368 8.54621 10.3412L9.65924 5.75112Z" fill="#B5FF00"/>
<path d="M23.0211 21.7699C23.27 20.7434 24.73 20.7434 24.9789 21.7699L25.6639 24.5946C25.7527 24.9611 26.0389 25.2473 26.4054 25.3361L29.2301 26.0211C30.2566 26.27 30.2566 27.73 29.2301 27.9789L26.4054 28.6639C26.0389 28.7527 25.7527 29.0389 25.6639 29.4054L24.9789 32.2301C24.73 33.2566 23.27 33.2566 23.0211 32.2301L22.3361 29.4054C22.2473 29.0389 21.9611 28.7527 21.5946 28.6639L18.7699 27.9789C17.7434 27.73 17.7434 26.27 18.7699 26.0211L21.5946 25.3361C21.9611 25.2473 22.2473 24.9611 22.3361 24.5946L23.0211 21.7699Z" fill="#B5FF00"/>
<path d="M27.8576 5.56776C28.0209 4.89408 28.9791 4.89408 29.1424 5.56776L29.5919 7.42144C29.6502 7.66197 29.838 7.84976 30.0786 7.90809L31.9322 8.35758C32.6059 8.52094 32.6059 9.47906 31.9322 9.64242L30.0786 10.0919C29.838 10.1502 29.6502 10.338 29.5919 10.5786L29.1424 12.4322C28.9791 13.1059 28.0209 13.1059 27.8576 12.4322L27.4081 10.5786C27.3498 10.338 27.162 10.1502 26.9214 10.0919L25.0678 9.64242C24.3941 9.47906 24.3941 8.52094 25.0678 8.35758L26.9214 7.90809C27.162 7.84976 27.3498 7.66197 27.4081 7.42144L27.8576 5.56776Z" fill="#B5FF00"/>
<path fill-rule="evenodd" clip-rule="evenodd" d="M28.5 5.89664L28.1331 7.40957C27.9865 8.01432 27.5143 8.48649 26.9096 8.63314L25.3966 9L26.9096 9.36686C27.5143 9.51351 27.9865 9.98568 28.1331 10.5904L28.5 12.1034L28.8669 10.5904C29.0135 9.98568 29.4857 9.51351 30.0904 9.36686L31.6034 9L30.0904 8.63314C29.4857 8.48649 29.0135 8.01432 28.8669 7.40957L28.5 5.89664ZM29.2342 5.07744C29.0475 4.30752 27.9525 4.30752 27.7658 5.07744L27.2521 7.19593C27.1854 7.47082 26.9708 7.68544 26.6959 7.7521L24.5774 8.2658C23.8075 8.4525 23.8075 9.5475 24.5774 9.7342L26.6959 10.2479C26.9708 10.3146 27.1854 10.5292 27.2521 10.8041L27.7658 12.9226C27.9525 13.6925 29.0475 13.6925 29.2342 12.9226L29.7479 10.8041C29.8146 10.5292 30.0292 10.3146 30.3041 10.2479L32.4226 9.7342C33.1925 9.5475 33.1925 8.4525 32.4226 8.2658L30.3041 7.7521C30.0292 7.68544 29.8146 7.47082 29.7479 7.19593L29.2342 5.07744Z" fill="#B5FF00"/>
<path d="M10.5 34.5C9.67157 34.5 9 33.8284 9 33C9 32.1716 9.67157 31.5 10.5 31.5C11.3284 31.5 12 32.1716 12 33C12 33.8284 11.3284 34.5 10.5 34.5Z" fill="#B5FF00"/>
<path d="M3 28.5C2.17157 28.5 1.5 27.8284 1.5 27C1.5 26.1716 2.17157 25.5 3 25.5C3.82843 25.5 4.5 26.1716 4.5 27C4.5 27.8284 3.82843 28.5 3 28.5Z" fill="#B5FF00"/>
<path d="M19.5 4.5C18.6716 4.5 18 3.82843 18 3C18 2.17157 18.6716 1.5 19.5 1.5C20.3284 1.5 21 2.17157 21 3C21 3.82843 20.3284 4.5 19.5 4.5Z" fill="#B5FF00"/>
<path d="M33 21C32.1716 21 31.5 20.3284 31.5 19.5C31.5 18.6716 32.1716 18 33 18C33.8284 18 34.5 18.6716 34.5 19.5C34.5 20.3284 33.8284 21 33 21Z" fill="#B5FF00"/>
</svg>
