<svg width="36" height="36" viewBox="0 0 36 36" fill="none" xmlns="http://www.w3.org/2000/svg">
<path d="M28.5 33C28.5 33.8284 27.8284 34.5 27 34.5C26.1716 34.5 25.5 33.8284 25.5 33C25.5 32.1716 26.1716 31.5 27 31.5C27.8284 31.5 28.5 32.1716 28.5 33Z" fill="#B5FF00"/>
<path d="M34.5 27C34.5 27.8284 33.8284 28.5 33 28.5C32.1716 28.5 31.5 27.8284 31.5 27C31.5 26.1716 32.1716 25.5 33 25.5C33.8284 25.5 34.5 26.1716 34.5 27Z" fill="#B5FF00"/>
<path d="M4.5 9C4.5 9.82843 3.82843 10.5 3 10.5C2.17157 10.5 1.5 9.82843 1.5 9C1.5 8.17157 2.17157 7.5 3 7.5C3.82843 7.5 4.5 8.17157 4.5 9Z" fill="#B5FF00"/>
<path d="M10.5 3C10.5 3.82843 9.82843 4.5 9 4.5C8.17157 4.5 7.5 3.82843 7.5 3C7.5 2.17157 8.17157 1.5 9 1.5C9.82843 1.5 10.5 2.17157 10.5 3Z" fill="#B5FF00"/>
<path fill-rule="evenodd" clip-rule="evenodd" d="M18 9.72437L17.0217 13.7589C16.6306 15.3715 15.3715 16.6306 13.7589 17.0217L9.72437 18L13.7589 18.9783C15.3715 19.3694 16.6306 20.6285 17.0217 22.2411L18 26.2756L18.9783 22.2411C19.3694 20.6285 20.6285 19.3694 22.2411 18.9783L26.2756 18L22.2411 17.0217C20.6285 16.6306 19.3694 15.3715 18.9783 13.7589L18 9.72437ZM19.9579 7.53984C19.46 5.48672 16.54 5.48672 16.0421 7.53985L14.6723 13.1892C14.4945 13.9222 13.9222 14.4945 13.1892 14.6723L7.53984 16.0421C5.48672 16.54 5.48672 19.46 7.53985 19.9579L13.1892 21.3277C13.9222 21.5055 14.4945 22.0778 14.6723 22.8108L16.0421 28.4602C16.54 30.5133 19.46 30.5133 19.9579 28.4602L21.3277 22.8108C21.5055 22.0778 22.0778 21.5055 22.8108 21.3277L28.4602 19.9579C30.5133 19.46 30.5133 16.54 28.4602 16.0421L22.8108 14.6723C22.0778 14.4945 21.5055 13.9222 21.3277 13.1892L19.9579 7.53984Z" fill="#B5FF00"/>
<path fill-rule="evenodd" clip-rule="evenodd" d="M13.5069 33.472C13.2462 34.1706 12.4686 34.5255 11.7701 34.2648C7.24545 32.576 3.61099 29.0702 1.7546 24.6343C1.46677 23.9465 1.791 23.1556 2.47879 22.8677C3.16657 22.5799 3.95747 22.9041 4.2453 23.5919C5.81431 27.3412 8.88981 30.3078 12.7142 31.7352C13.4127 31.9959 13.7676 32.7735 13.5069 33.472Z" fill="#B5FF00"/>
<path fill-rule="evenodd" clip-rule="evenodd" d="M33.473 13.5311C32.7747 13.7924 31.9968 13.4381 31.7355 12.7398C30.2969 8.89431 27.2956 5.80608 23.504 4.24876C22.8143 3.96549 22.4849 3.17676 22.7681 2.48708C23.0514 1.79741 23.8401 1.46795 24.5298 1.75122C29.014 3.593 32.5615 7.24196 34.2644 11.7937C34.5256 12.492 34.1713 13.2699 33.473 13.5311Z" fill="#B5FF00"/>
</svg>
