<svg width="36" height="36" viewBox="0 0 36 36" fill="none" xmlns="http://www.w3.org/2000/svg">
<path fill-rule="evenodd" clip-rule="evenodd" d="M4.5 7.5C4.5 6.67157 5.17157 6 6 6H16.5C17.3284 6 18 6.67157 18 7.5C18 8.32843 17.3284 9 16.5 9H12.75V27H16.5C17.3284 27 18 27.6716 18 28.5C18 29.3284 17.3284 30 16.5 30H6C5.17157 30 4.5 29.3284 4.5 28.5C4.5 27.6716 5.17157 27 6 27H9.75V9H6C5.17157 9 4.5 8.32843 4.5 7.5Z" fill="#B5FF00"/>
<path d="M23.0211 12.7699C23.27 11.7434 24.73 11.7434 24.9789 12.7699L25.6639 15.5946C25.7527 15.9611 26.0389 16.2473 26.4054 16.3361L29.2301 17.0211C30.2566 17.27 30.2566 18.73 29.2301 18.9789L26.4054 19.6639C26.0389 19.7527 25.7527 20.0389 25.6639 20.4054L24.9789 23.2301C24.73 24.2566 23.27 24.2566 23.0211 23.2301L22.3361 20.4054C22.2473 20.0389 21.9611 19.7527 21.5946 19.6639L18.7699 18.9789C17.7434 18.73 17.7434 17.27 18.7699 17.0211L21.5946 16.3361C21.9611 16.2473 22.2473 15.9611 22.3361 15.5946L23.0211 12.7699Z" fill="#B5FF00"/>
<path fill-rule="evenodd" clip-rule="evenodd" d="M24 13.8622L23.5108 15.8794C23.3153 16.6858 22.6858 17.3153 21.8794 17.5108L19.8622 18L21.8794 18.4892C22.6858 18.6847 23.3153 19.3142 23.5108 20.1206L24 22.1378L24.4892 20.1206C24.6847 19.3142 25.3142 18.6847 26.1206 18.4892L28.1378 18L26.1206 17.5108C25.3142 17.3153 24.6847 16.6858 24.4892 15.8794L24 13.8622ZM24.9789 12.7699C24.73 11.7434 23.27 11.7434 23.0211 12.7699L22.3361 15.5946C22.2473 15.9611 21.9611 16.2473 21.5946 16.3361L18.7699 17.0211C17.7434 17.27 17.7434 18.73 18.7699 18.9789L21.5946 19.6639C21.9611 19.7527 22.2473 20.0389 22.3361 20.4054L23.0211 23.2301C23.27 24.2566 24.73 24.2566 24.9789 23.2301L25.6639 20.4054C25.7527 20.0389 26.0389 19.7527 26.4054 19.6639L29.2301 18.9789C30.2566 18.73 30.2566 17.27 29.2301 17.0211L26.4054 16.3361C26.0389 16.2473 25.7527 15.9611 25.6639 15.5946L24.9789 12.7699Z" fill="#B5FF00"/>
<path d="M31.5 7.5C31.5 8.32843 30.8284 9 30 9C29.1716 9 28.5 8.32843 28.5 7.5C28.5 6.67157 29.1716 6 30 6C30.8284 6 31.5 6.67157 31.5 7.5Z" fill="#B5FF00"/>
<path d="M31.5 28.5C31.5 29.3284 30.8284 30 30 30C29.1716 30 28.5 29.3284 28.5 28.5C28.5 27.6716 29.1716 27 30 27C30.8284 27 31.5 27.6716 31.5 28.5Z" fill="#B5FF00"/>
</svg>
