<svg width="18" height="17" viewBox="0 0 18 17" fill="none" xmlns="http://www.w3.org/2000/svg">
<path d="M17.5783 15.9656C16.2851 13.7299 14.2922 12.1267 11.9665 11.3668C13.1169 10.682 14.0107 9.63841 14.5106 8.39644C15.0106 7.15446 15.089 5.78271 14.7338 4.49186C14.3787 3.201 13.6096 2.06241 12.5448 1.25095C11.4799 0.439479 10.1781 0 8.83926 0C7.50045 0 6.19864 0.439479 5.13377 1.25095C4.0689 2.06241 3.29984 3.201 2.94469 4.49186C2.58955 5.78271 2.66796 7.15446 3.16788 8.39644C3.6678 9.63841 4.56159 10.682 5.71199 11.3668C3.38628 12.1259 1.39342 13.729 0.100226 15.9656C0.0528021 16.0429 0.0213463 16.1289 0.00771432 16.2186C-0.00591766 16.3083 -0.00144966 16.3998 0.0208547 16.4877C0.043159 16.5757 0.082848 16.6582 0.13758 16.7306C0.192311 16.8029 0.260977 16.8635 0.339526 16.9089C0.418075 16.9543 0.504915 16.9835 0.594924 16.9947C0.684932 17.006 0.776285 16.9991 0.863594 16.9745C0.950902 16.9499 1.0324 16.9081 1.10327 16.8514C1.17414 16.7948 1.23296 16.7246 1.27624 16.6449C2.87597 13.8802 5.7035 12.2295 8.83926 12.2295C11.975 12.2295 14.8026 13.8802 16.4023 16.6449C16.4456 16.7246 16.5044 16.7948 16.5753 16.8514C16.6461 16.9081 16.7276 16.9499 16.8149 16.9745C16.9022 16.9991 16.9936 17.006 17.0836 16.9947C17.1736 16.9835 17.2604 16.9543 17.339 16.9089C17.4175 16.8635 17.4862 16.8029 17.5409 16.7306C17.5957 16.6582 17.6354 16.5757 17.6577 16.4877C17.68 16.3998 17.6844 16.3083 17.6708 16.2186C17.6572 16.1289 17.6257 16.0429 17.5783 15.9656ZM4.08425 6.1159C4.08425 5.17545 4.36313 4.25611 4.88561 3.47416C5.4081 2.6922 6.15073 2.08274 7.0196 1.72284C7.88846 1.36294 8.84454 1.26878 9.76692 1.45225C10.6893 1.63573 11.5366 2.0886 12.2016 2.7536C12.8666 3.4186 13.3194 4.26586 13.5029 5.18824C13.6864 6.11063 13.5922 7.0667 13.2323 7.93557C12.8724 8.80443 12.263 9.54706 11.481 10.0696C10.699 10.592 9.77972 10.8709 8.83926 10.8709C7.57857 10.8696 6.3699 10.3682 5.47845 9.47672C4.587 8.58527 4.0856 7.3766 4.08425 6.1159Z" fill="white"/>
</svg>
